<?xml version="1.0" standalone="no"?>
<!DOCTYPE svg PUBLIC "-//W3C//DTD SVG 20010904//EN"
 "http://www.w3.org/TR/2001/REC-SVG-20010904/DTD/svg10.dtd">
<svg version="1.0" xmlns="http://www.w3.org/2000/svg"
 width="567.000000pt" height="284.000000pt" viewBox="0 0 567.000000 284.000000"
 preserveAspectRatio="xMidYMid meet">
<metadata>
Created by potrace 1.15, written by Peter Selinger 2001-2017
</metadata>
<g transform="translate(0.000000,284.000000) scale(0.100000,-0.100000)"
fill="#000000" stroke="none">
<path d="M1492 1770 c-42 -26 -87 -97 -114 -182 -22 -68 -22 -68 -59 -68 -34
0 -39 -3 -48 -33 -16 -46 -6 -67 31 -67 23 0 28 -4 24 -17 -49 -167 -107 -416
-99 -424 15 -15 70 -19 87 -6 9 7 38 99 72 230 l57 217 44 0 c41 0 45 2 59 36
21 50 13 64 -37 64 -29 0 -40 4 -37 13 3 6 13 35 22 62 9 28 25 61 35 74 18
23 21 24 60 12 36 -10 40 -14 31 -31 -5 -10 -10 -27 -10 -38 0 -26 41 -62 71
-62 30 0 69 38 69 66 0 28 -36 64 -65 64 -21 0 -22 2 -12 29 15 41 5 57 -47
70 -64 16 -96 14 -134 -9z"/>
<path d="M3742 1782 c-13 -2 -27 -13 -32 -25 -6 -12 -44 -155 -85 -317 -42
-162 -78 -303 -81 -312 -5 -16 -7 -15 -25 3 -22 22 -49 25 -67 7 -20 -20 -15
2 38 176 28 90 50 171 50 180 0 23 -42 40 -77 31 -15 -5 -49 -7 -74 -6 -107 6
-173 -74 -235 -288 -13 -46 -24 -106 -24 -133 0 -46 4 -54 44 -94 24 -24 50
-44 59 -44 8 0 29 12 46 26 l31 26 10 -26 c5 -15 17 -26 27 -26 34 1 98 37
142 81 44 44 44 44 37 14 -4 -16 -9 -37 -12 -46 -7 -26 24 -52 55 -44 14 3 31
13 36 21 6 9 63 99 128 202 64 102 117 182 117 177 0 -5 -25 -92 -57 -194 -52
-172 -55 -185 -38 -197 14 -11 81 -11 91 -1 2 2 33 112 69 245 60 219 65 244
53 269 -11 24 -20 28 -58 31 -38 2 -51 -2 -83 -29 -21 -17 -54 -54 -73 -83
-18 -28 -34 -46 -34 -41 0 6 22 96 49 202 36 140 46 195 37 201 -17 14 -39 18
-64 14z m-337 -361 c7 -12 -39 -158 -71 -226 -14 -28 -39 -67 -57 -86 l-32
-34 -3 39 c-3 39 35 182 65 241 31 61 80 94 98 66z"/>
<path d="M466 1728 c-25 -35 -20 -67 10 -78 14 -6 24 -16 22 -23 -3 -6 -40
-153 -84 -325 -75 -298 -78 -314 -61 -327 20 -14 74 -12 90 4 5 5 26 76 46
157 33 132 40 149 59 152 13 2 22 -2 22 -10 1 -37 41 -293 47 -299 13 -13 67
-17 86 -7 22 11 22 42 -3 193 -11 66 -20 127 -20 135 0 9 16 24 36 35 71 38
123 139 125 244 2 76 -21 118 -81 149 -38 19 -60 22 -162 22 -109 0 -118 -1
-132 -22z m258 -120 c14 -39 -10 -133 -43 -170 -20 -23 -38 -31 -74 -35 -26
-3 -47 -3 -47 1 0 18 54 222 61 232 5 6 26 8 51 5 35 -5 44 -11 52 -33z"/>
<path d="M2797 1733 c-26 -29 -22 -72 7 -83 l24 -9 -79 -313 c-43 -172 -79
-321 -79 -330 0 -26 34 -40 72 -30 l33 8 39 155 c22 84 44 157 49 161 25 16
35 -10 54 -153 12 -83 25 -155 30 -160 15 -15 72 -17 90 -4 17 12 16 21 -5
157 -12 78 -22 152 -22 163 0 12 15 29 38 43 44 27 96 100 111 157 17 65 14
146 -9 182 -33 55 -70 67 -210 71 -114 4 -127 2 -143 -15z m248 -105 c16 -15
7 -115 -15 -158 -11 -22 -33 -46 -50 -55 -33 -17 -90 -20 -90 -4 0 10 47 202
55 227 5 14 82 6 100 -10z"/>
<path d="M1121 1521 c-7 -5 -31 -6 -52 -4 -106 15 -170 -56 -233 -256 -15 -46
-29 -109 -32 -140 -5 -48 -3 -61 18 -90 12 -19 36 -44 51 -55 l28 -21 40 23
40 23 18 -22 18 -23 49 19 c56 21 147 106 142 132 -2 10 -15 24 -30 33 -23 12
-31 13 -48 2 -11 -7 -20 -10 -20 -6 0 3 23 80 50 171 28 91 50 174 50 184 0
31 -57 50 -89 30z m-45 -104 c5 -14 -48 -181 -73 -232 -21 -40 -72 -105 -84
-105 -37 0 42 268 99 333 18 20 50 23 58 4z"/>
<path d="M2405 1523 c-11 -2 -32 -18 -47 -35 l-27 -31 2 29 c2 28 1 29 -48 29
l-50 0 -16 -50 c-8 -27 -40 -146 -70 -263 -52 -207 -53 -214 -35 -227 20 -15
71 -14 86 1 8 8 80 269 80 289 0 5 8 1 18 -7 9 -8 23 -13 30 -12 6 1 20 2 30
3 9 1 24 6 32 11 13 8 13 14 -4 44 l-19 35 44 56 c95 120 87 105 65 121 -20
14 -34 16 -71 7z"/>
<path d="M4967 1524 c-3 -4 -37 -7 -74 -8 -54 -1 -75 -6 -101 -24 -61 -44
-152 -274 -152 -385 0 -57 19 -98 60 -127 33 -24 61 -20 96 11 20 19 21 19 32
-6 6 -14 19 -25 27 -25 32 0 86 30 137 77 32 30 49 40 44 28 -26 -69 -15 -105
30 -100 33 3 42 13 101 107 126 203 187 297 190 294 2 -1 -22 -83 -52 -182
-59 -191 -60 -199 -45 -209 20 -13 68 -14 84 -2 18 14 137 433 138 485 0 46
-17 62 -68 62 -37 0 -51 -6 -85 -37 -23 -21 -57 -60 -76 -88 -20 -27 -33 -43
-31 -35 25 77 38 135 34 147 -4 10 -19 13 -53 11 l-48 -3 -54 -202 -54 -202
-29 24 c-23 20 -33 23 -49 15 -10 -6 -19 -16 -19 -22 0 -6 -2 -9 -5 -6 -3 3
18 81 46 174 54 179 60 211 38 225 -16 10 -53 12 -62 3z m-55 -100 c8 -7 -37
-154 -66 -219 -28 -62 -85 -130 -98 -117 -18 18 39 224 80 292 27 43 65 63 84
44z"/>
<path d="M1606 1511 c-8 -12 -136 -500 -136 -516 0 -30 77 -42 103 -16 14 14
140 509 134 525 -7 17 -91 23 -101 7z"/>
<path d="M1791 1488 c-34 -105 -111 -408 -111 -435 0 -19 9 -43 23 -59 47 -54
124 -23 188 76 18 27 33 50 34 50 1 0 -6 -29 -15 -64 -10 -36 -14 -69 -10 -76
5 -8 25 -14 45 -15 27 -2 40 3 50 19 18 29 137 483 133 510 -3 18 -10 21 -47
21 l-45 0 -96 -170 c-119 -210 -140 -244 -140 -225 0 8 24 96 53 195 30 99 52
186 49 193 -2 7 -23 12 -52 12 -46 0 -49 -2 -59 -32z"/>
<path d="M4071 1453 c-11 -38 -43 -157 -72 -267 -48 -181 -51 -199 -36 -211
28 -20 72 -7 92 28 20 35 163 261 203 320 14 20 26 36 28 34 2 -1 -22 -84 -52
-182 -36 -119 -52 -185 -46 -195 10 -16 59 -22 85 -8 9 5 29 31 43 59 28 56
207 340 211 335 1 -1 -22 -82 -52 -180 -54 -175 -63 -215 -47 -217 49 -8 71
-7 85 4 19 14 137 436 137 489 0 44 -15 58 -65 58 -53 0 -104 -35 -146 -100
-18 -27 -34 -48 -36 -46 -2 2 1 24 8 50 10 39 9 50 -5 71 -14 21 -24 25 -61
25 -37 0 -52 -6 -84 -36 -22 -19 -54 -57 -71 -85 -18 -27 -33 -49 -35 -49 -1
0 6 31 18 69 25 88 21 101 -37 101 l-45 0 -20 -67z"/>
</g>
</svg>
